<?xml version="1.0" encoding="utf-8"?>
<svg xmlns="http://www.w3.org/2000/svg" width="24" height="24" viewBox="0 0 298 250" style="fill: #fff !important">
  <path d="M208.15,131.15c-.98,1.98-2.27,3.77-3.82,5.34l-51.27,52.46c-.89,1.24-2.42,2.02-4.1,2.02s-3.22-.78-4.21-2.15l-51.18-52.34c-.25-.24-.52-.53-.77-.82-5.36-6.01-6.39-14.69-2.61-22.09L144.29,7.55c1.05-1.63,2.77-2.55,4.67-2.55s3.61,.91,4.61,2.44l54.23,106.29c2.85,5.57,2.98,12.09,.35,17.42Zm-57.55,91.9L15.52,85.7l-.43-.44c-1-.8-2.15-1.21-3.39-1.21-1.81,.07-3.4,.86-4.38,2.16-.92,1.22-1.19,2.8-.77,4.48L45.86,225.98c.94,3.23,2.46,6.23,4.55,8.89,.25,.34,.53,.67,.8,.99,4.67,5.41,11.71,8.38,19.01,8.38,2.83,0,5.7-.44,8.48-1.38,20.24-6.7,41.43-10.46,63.03-11.15,1.83-.14,3.65-.25,5.46-.34,1.5-.08,2.89-.8,3.79-1.97,.89-1.14,1.23-2.58,.96-3.97-.17-.83-.62-1.63-1.33-2.37ZM289.18,84.9c-1.71-1.17-3.89-1.1-6.17,.26l-.56,.34-116.15,118.31c-1.93,1.96-1.94,5.04-.02,7l20.24,20.7c2.4,2.46,5.48,4.14,8.93,4.87,9.18,1.93,18.29,4.47,27.09,7.54,2.04,.71,4.17,1.06,6.31,1.06,2.65,0,5.3-.54,7.83-1.62,4.36-1.78,8.13-4.59,10.9-8.14,2.07-2.65,3.61-5.65,4.56-8.91l39.32-135.35c.16-.63,.22-1.26,.17-1.8,0-1.72-.92-3.32-2.45-4.28Z"/>
</svg>