<svg id="present_icon_twitter.svg" data-name="present/icon_twitter.svg" xmlns="http://www.w3.org/2000/svg" width="21.75" height="17.69" viewBox="0 0 21.75 17.69">
  <defs>
    <style>
      .cls-1 {
        fill: #fff;
        fill-rule: evenodd;
      }
    </style>
  </defs>
  <path id="tw" class="cls-1" d="M750.921,4000.22c0-.01.011-0.02,0.015-0.03a8.655,8.655,0,0,1-2.022.62,4.529,4.529,0,0,1-.521.07,4.5,4.5,0,0,0,1.681-1.84,4.275,4.275,0,0,0,.268-0.6,0.014,0.014,0,0,0-.015.01,0.031,0.031,0,0,1,.008-0.02,8.969,8.969,0,0,1-2.835,1.08,4.467,4.467,0,0,0-7.724,3.06,4.344,4.344,0,0,0,.1.92c0,0.03.007,0.06,0.013,0.09a12.636,12.636,0,0,1-8.32-3.69c-0.3-.31-0.595-0.63-0.868-0.97a0.017,0.017,0,0,1,0,.01c0-.01-0.007-0.01-0.01-0.01a4.452,4.452,0,0,0,.782,5.47,4.476,4.476,0,0,0,.579.49,4.518,4.518,0,0,1-2-.56v0.06a4.464,4.464,0,0,0,2.6,4.05,4.4,4.4,0,0,0,.953.33,4.383,4.383,0,0,1-1.152.16,5.055,5.055,0,0,1-.681-0.06l-0.146-.03a0.036,0.036,0,0,1,0,.01h-0.015a4.487,4.487,0,0,0,3.458,3.03,5.349,5.349,0,0,0,.7.08,8.969,8.969,0,0,1-5.534,1.9,8.718,8.718,0,0,1-.89-0.05c-0.056-.01-0.113-0.01-0.167-0.02,0.007,0,.015.01,0.023,0.01h-0.03a12.609,12.609,0,0,0,6.844,2.01,12.262,12.262,0,0,0,9.289-3.99l0.056-.06c0.231-.26.45-0.53,0.658-0.8,0.049-.06.1-0.13,0.148-0.19,0.176-.24.341-0.49,0.5-0.74,0.063-.1.127-0.2,0.188-0.3,0.141-.24.271-0.48,0.4-0.72,0.057-.11.115-0.22,0.169-0.34,0.125-.26.239-0.52,0.346-0.79,0.036-.09.073-0.17,0.107-0.26,0.122-.33.229-0.65,0.325-0.98,0.008-.03.017-0.06,0.024-0.08a12.677,12.677,0,0,0,.5-3.46c0-.2,0-0.39-0.013-0.58a8.911,8.911,0,0,0,1.833-1.78c0.138-.17.274-0.34,0.4-0.52A0.021,0.021,0,0,0,750.921,4000.22Z" transform="translate(-729.188 -3998.09)"/>
</svg>
